<svg width="76" height="76" viewBox="0 0 76 76" fill="none" xmlns="http://www.w3.org/2000/svg">
<path id="Star 1" d="M37.0572 0.665923C37.3715 -0.222867 38.6285 -0.222867 38.9428 0.665922L43.6122 13.8698C43.8462 14.5315 44.6713 14.7526 45.2048 14.2965L55.8506 5.19635C56.5672 4.58379 57.6557 5.21226 57.4835 6.13913L54.9254 19.9087C54.7972 20.5988 55.4012 21.2028 56.0913 21.0746L69.8609 18.5165C70.7877 18.3443 71.4162 19.4328 70.8037 20.1494L61.7035 30.7952C61.2474 31.3287 61.4685 32.1538 62.1302 32.3878L75.3341 37.0572C76.2229 37.3715 76.2229 38.6285 75.3341 38.9428L62.1302 43.6122C61.4685 43.8462 61.2474 44.6713 61.7035 45.2048L70.8037 55.8506C71.4162 56.5672 70.7877 57.6557 69.8609 57.4835L56.0913 54.9254C55.4012 54.7972 54.7972 55.4012 54.9254 56.0913L57.4835 69.8609C57.6557 70.7877 56.5672 71.4162 55.8506 70.8037L45.2048 61.7035C44.6713 61.2474 43.8462 61.4685 43.6122 62.1302L38.9428 75.3341C38.6285 76.2229 37.3715 76.2229 37.0572 75.3341L32.3878 62.1302C32.1538 61.4685 31.3287 61.2474 30.7952 61.7035L20.1494 70.8037C19.4328 71.4162 18.3443 70.7877 18.5165 69.8609L21.0746 56.0913C21.2028 55.4012 20.5988 54.7972 19.9087 54.9254L6.13913 57.4835C5.21226 57.6557 4.58379 56.5672 5.19635 55.8506L14.2965 45.2048C14.7526 44.6713 14.5315 43.8462 13.8698 43.6122L0.665923 38.9428C-0.222867 38.6285 -0.222867 37.3715 0.665922 37.0572L13.8698 32.3878C14.5315 32.1538 14.7526 31.3287 14.2965 30.7952L5.19635 20.1494C4.58379 19.4328 5.21226 18.3443 6.13913 18.5165L19.9087 21.0746C20.5988 21.2028 21.2028 20.5988 21.0746 19.9087L18.5165 6.13913C18.3443 5.21226 19.4328 4.58379 20.1494 5.19635L30.7952 14.2965C31.3287 14.7526 32.1538 14.5315 32.3878 13.8698L37.0572 0.665923Z" fill="url(#paint0_linear_15634_383)"/>
<defs>
<linearGradient id="paint0_linear_15634_383" x1="-26.8372" y1="-6.24893" x2="25.5309" y2="98.2646" gradientUnits="userSpaceOnUse">
<stop stop-color="#F9A8D4"/>
<stop offset="0.666667" stop-color="#F472B6"/>
</linearGradient>
</defs>
</svg>
